<?xml version="1.0" encoding="UTF-8" standalone="no"?>
<svg
   id="Capa_1"
   data-name="Capa 1"
   viewBox="0 0 33.000001 47.255999"
   version="1.1"
   sodipodi:docname="dark.svg"
   width="33"
   height="47.256001"
   inkscape:version="1.4 (86a8ad7, 2024-10-11)"
   xmlns:inkscape="http://www.inkscape.org/namespaces/inkscape"
   xmlns:sodipodi="http://sodipodi.sourceforge.net/DTD/sodipodi-0.dtd"
   xmlns="http://www.w3.org/2000/svg"
   xmlns:svg="http://www.w3.org/2000/svg">
  <sodipodi:namedview
     id="namedview1"
     pagecolor="#ffffff"
     bordercolor="#000000"
     borderopacity="0.25"
     inkscape:showpageshadow="2"
     inkscape:pageopacity="0.0"
     inkscape:pagecheckerboard="0"
     inkscape:deskcolor="#d1d1d1"
     inkscape:zoom="14.570028"
     inkscape:cx="16.506488"
     inkscape:cy="20.693165"
     inkscape:window-width="1920"
     inkscape:window-height="1009"
     inkscape:window-x="-8"
     inkscape:window-y="-8"
     inkscape:window-maximized="1"
     inkscape:current-layer="Capa_1" />
  <defs
     id="defs1">
    <style
       id="style1">
      .cls-1 {
        fill: #45c0f0;
      }

      .cls-1, .cls-2 {
        stroke-width: 0px;
      }

      .cls-2 {
        fill: #17243d;
      }
    </style>
  </defs>
  <path
     class="cls-2"
     d="m 10.418511,12.281341 c -0.085,-0.176223 0.01451,-0.595011 0.02902,-0.789892 0.02281,-0.292323 0.06012,-0.584645 0.10988,-0.874895 0.101588,-0.576351 0.259151,-1.1444101 0.466472,-1.6917368 0.437447,-1.1444106 1.096727,-2.1934535 1.890765,-3.1243236 1.664786,-1.9571078 3.910069,-3.3855477 6.737924,-4.2853197 1.884546,-0.60744993 4.743499,-0.9101382 8.574786,-0.9101382 0.545254,0 1.979913,0.010366 4.303979,0.031098 -1.5321,3.3959139 -3.157495,8.1249 -4.876184,14.1848863 l -4.687522,16.386632 c -0.692451,2.442238 -1.764299,4.758011 -2.813342,7.075857 -0.777453,1.722835 -1.82235,3.315059 -3.174081,4.695815 -0.667573,0.682085 -1.345512,1.357951 -2.108452,1.928083 -1.148557,0.858307 -2.481629,1.471977 -3.885191,1.770519 -2.7013888,0.572205 -6.7171918,-0.163784 -8.6680798,-2.477483 -0.760867,-0.901845 -1.39734199,-2.382115 -1.61295499,-3.468476 -0.385617,-1.942596 -0.08085,-4.183733 0.42500699,-6.08901 1.588077,-5.977057 6.611459,-10.807631 12.2713148,-13.299626 5.178872,-2.278455 11.881552,-3.482989 18.065929,-3.424939 -0.516228,2.004792 -1.009652,3.804336 -1.559052,4.048974 -2.214185,0.98892 -7.874041,1.386976 -10.266523,1.778812 -3.692382,0.605377 -8.214047,1.973694 -10.9755598,5.160214 -1.577711,1.820276 -2.906636,3.856166 -3.682016,6.136694 -1.2149,3.574209 0.646841,7.467693 4.650204,7.670867 2.1499158,0.10988 3.8997028,-1.393195 5.0254548,-3.024809 1.020018,-1.478197 1.629541,-3.232131 2.203819,-4.934234 0.605377,-1.797471 1.190021,-3.601161 1.7643,-5.406925 1.762226,-5.498146 3.470549,-11.20776 5.129115,-17.126767 L 26.320007,3.2608144 25.39743,3.0887382 c -1.241851,-0.230126 -2.5148,-0.2757366 -3.760798,-0.082928 -1.693811,0.2632973 -2.79261,0.8811131 -4.33715,2.0172308 -2.181014,1.6046625 -3.321278,3.1803002 -3.321278,4.9611858"
     id="path1" />
  <circle
     class="cls-1"
     cx="25.002218"
     cy="44.046047"
     id="circle1"
     r="2.9522474" />
</svg>
