<?xml version="1.0" encoding="UTF-8" standalone="no"?>
<svg
   id="Capa_1"
   data-name="Capa 1"
   viewBox="0 0 33.000001 47.257998"
   version="1.1"
   width="33"
   height="47.257999"
   xmlns:xlink="http://www.w3.org/1999/xlink"
   xmlns="http://www.w3.org/2000/svg">
  <defs
     id="defs1">
    <style
       id="style1">
      .cls-1 {
        fill: #fff;
        stroke-width: 0px;
      }
    </style>
    <clipPath
       clipPathUnits="userSpaceOnUse"
       id="clipPath2">
      <use
         x="0"
         y="0"
         xlink:href="#g1"
         id="use2" />
    </clipPath>
  </defs>
  <g
     id="g2"
     clip-path="url(#clipPath2)"
     transform="translate(31.54554,0.1941264)">
    <g id="g1">
      <path
         class="cls-1"
         d="m -21.237089,11.96749 c -0.085,-0.17622 0.0145,-0.59501 0.029,-0.78989 0.0228,-0.29232 0.0601,-0.58464 0.10988,-0.87489 0.10159,-0.5763504 0.25916,-1.1444104 0.46648,-1.6917403 0.43744,-1.14441 1.09672,-2.19345 1.89076,-3.12432 1.66479,-1.95711 3.91007,-3.38555 6.73793,-4.2853201 1.88454,-0.60744999 4.7434904,-0.91013999 8.5747804,-0.91013999 0.54525,0 1.9799104,0.0104 4.30398036,0.0311 C -0.65637824,3.7181997 -2.2817782,8.4471897 -4.0004586,14.50717 l -4.68753,16.38663 c -0.69245,2.44224 -1.7643004,4.75802 -2.8133404,7.07586 -0.77745,1.72284 -1.82235,3.31506 -3.17408,4.69582 -0.66757,0.68208 -1.34551,1.35795 -2.10845,1.92808 -1.14856,0.85831 -2.48163,1.47198 -3.88519,1.77052 -2.70139,0.5722 -6.71719,-0.16379 -8.66808,-2.47748 -0.76087,-0.90185 -1.39734,-2.38212 -1.61296,-3.46848 -0.38561,-1.9426 -0.0808,-4.18373 0.42501,-6.08901 1.58808,-5.97706 6.61146,-10.80763 12.27132,-13.29963 5.17887,-2.27845 11.8815504,-3.48298 18.06592076,-3.42493 -0.51622,2.00479 -1.00964996,3.80433 -1.55904996,4.04897 -2.2141804,0.98892 -7.8740404,1.38697 -10.2665208,1.77881 -3.69238,0.60538 -8.21405,1.97369 -10.97556,5.16021 -1.57771,1.82028 -2.90664,3.85617 -3.68202,6.1367 -1.2149,3.57421 0.64684,7.46769 4.65021,7.67087 2.14991,0.10988 3.8997,-1.3932 5.02545,-3.02481 1.02002,-1.4782 1.62954,-3.23213 2.20382,-4.93424 0.60538,-1.79747 1.19002,-3.60116 1.7643,-5.40692 1.76223,-5.49815 3.4705504,-11.20776 5.1291204,-17.12677 l 2.56248,-8.9604003 -0.92258,-0.17208 c -1.24185,-0.23012 -2.5148,-0.27573 -3.7608004,-0.0829 -1.69381,0.2633 -2.79261,0.88112 -4.33715,2.01723 -2.18101,1.60467 -3.32127,3.18031 -3.32127,4.9611899"
         id="path1" />
      <circle
         class="cls-1"
         cx="-6.2415695"
         cy="43.389027"
         r="2.9522474"
         id="circle1" />
    </g>
  </g>
</svg>
