<svg version="1.1" id="Layer_1" xmlns="http://www.w3.org/2000/svg" xmlns:xlink="http://www.w3.org/1999/xlink" viewBox="0 0 512 512" xml:space="preserve" fill="#000000"><g id="SVGRepo_bgCarrier" stroke-width="0"></g><g id="SVGRepo_tracerCarrier" stroke-linecap="round" stroke-linejoin="round"></g><g id="SVGRepo_iconCarrier"> <g> <path style="fill:#F2901D;" d="M153.308,430.167c0-39.199-31.883-71.088-71.071-71.088c-39.194,0-71.079,31.891-71.079,71.088 c0,39.191,31.886,71.076,71.079,71.076C121.426,501.243,153.308,469.358,153.308,430.167z"></path> <path style="fill:#F2901D;" d="M19.155,278.883c57.028,0,110.661,22.306,151.019,62.806c40.359,40.569,62.587,94.59,62.587,152.111 c0,4.38,3.549,7.929,7.929,7.929h91.161c4.38,0,7.929-3.549,7.929-7.929c0-177.534-143.831-321.968-320.627-321.968 c-4.38,0-7.929,3.549-7.929,7.929v91.192C11.226,275.333,14.777,278.883,19.155,278.883z"></path> <path style="fill:#F2901D;" d="M19.28,10.199c-4.38,0-7.929,3.549-7.929,7.929v91.176c0,4.38,3.549,7.929,7.929,7.929 c206.536,0,374.567,168.959,374.567,376.638c0,4.38,3.549,7.929,7.929,7.929h91.138c4.38,0,7.929-3.549,7.929-7.929 C500.842,227.173,284.814,10.199,19.28,10.199z"></path> </g> <g> <path style="fill:#AE6700;" d="M82.237,511.442c-44.817,0-81.278-36.46-81.278-81.275c0-44.822,36.461-81.288,81.278-81.288 c44.813,0,81.27,36.465,81.27,81.288C163.508,474.982,127.05,511.442,82.237,511.442z M82.237,369.276 c-33.57,0-60.88,27.315-60.88,60.889c0,33.568,27.31,60.877,60.88,60.877c33.565,0,60.872-27.309,60.872-60.877 C143.109,396.592,115.803,369.276,82.237,369.276z"></path> <path style="fill:#AE6700;" d="M331.853,511.929H240.69c-9.995,0-18.127-8.133-18.127-18.128 c0-54.804-21.174-106.271-59.619-144.917c-38.424-38.56-89.491-59.8-143.787-59.8c-9.993,0-18.125-8.131-18.13-18.125v-91.197 c0-9.996,8.133-18.128,18.128-18.128c182.418,0,330.826,149.01,330.826,332.168C349.981,503.797,341.848,511.929,331.853,511.929z M242.95,491.53h86.625C328.363,321.413,190.81,183.255,21.423,182.038v86.656c58.913,0.582,114.223,23.895,155.975,65.794 C219.148,376.458,242.372,432.147,242.95,491.53z"></path> <path style="fill:#AE6700;" d="M492.914,512h-91.138c-9.996,0-18.128-8.133-18.128-18.128 c0-202.054-163.454-366.439-364.368-366.439c-9.996,0-18.128-8.133-18.128-18.128V18.128C1.15,8.133,9.283,0,19.28,0 c271.158,0,491.762,221.55,491.762,493.872C511.041,503.867,502.908,512,492.914,512z M404.038,491.602h86.599 C489.407,232.342,279.654,21.64,21.549,20.404v86.637C231.928,108.259,402.827,280.091,404.038,491.602z"></path> <path style="fill:#AE6700;" d="M419.191,315.528c-3.814,0-7.473-2.15-9.219-5.825c-1.149-2.419-2.351-4.889-3.572-7.341 c-2.509-5.044-0.455-11.166,4.588-13.675c5.044-2.511,11.165-0.456,13.675,4.588c1.275,2.563,2.53,5.146,3.733,7.676 c2.417,5.088,0.252,11.172-4.835,13.589C422.149,315.209,420.658,315.528,419.191,315.528z"></path> <path style="fill:#AE6700;" d="M461.827,477.323c-5.297,0-9.772-4.095-10.161-9.462c-3.053-42.1-12.048-83.421-26.738-122.812 c-1.968-5.278,0.715-11.152,5.993-13.12c5.278-1.966,11.152,0.715,13.12,5.992c15.365,41.208,24.776,84.429,27.969,128.464 c0.407,5.618-3.817,10.502-9.434,10.91C462.325,477.315,462.075,477.323,461.827,477.323z"></path> </g> </g></svg>